# xmcd CD database file
#
# Track frame offsets:
#	150
#	15081
#	27741
#	48540
#	67674
#	82261
#	117603
#	128774
#	146302
#	162553
#	177415
#	196325
#
# Disc length: 2802 seconds
#
# Revision: 1
# Processed by: cddbd v1.4PL0 Copyright (c) Steve Scherf et al.
# Submitted via: CDValet v3.40 - Copyright (c) 1996 - 1998 Greg Leichner
#
DISCID=a50af00c
DTITLE=Weathers, Patrick - The Queen Of Tupelo
DYEAR=1900
DGENRE=
TTITLE0=The Queen Of Tupelo
TTITLE1=Watching Marita
TTITLE2=You Got To Move On
TTITLE3=The Drinks Are On Me, But Her Mind Is On Him
TTITLE4=House Party
TTITLE5=Red Miata
TTITLE6=Double Wide
TTITLE7=Colleen
TTITLE8=Bye Bye, Baby Jo
TTITLE9=The Opelousas Jamboree
TTITLE10=Old Friends, Old Times
TTITLE11=Picture Show
EXTD=
EXTT0=
EXTT1=
EXTT2=
EXTT3=
EXTT4=
EXTT5=
EXTT6=
EXTT7=
EXTT8=
EXTT9=
EXTT10=
EXTT11=
PLAYORDER=
